<?xml version="1.0" standalone="no"?>
<!DOCTYPE svg PUBLIC "-//W3C//DTD SVG 20010904//EN"
 "http://www.w3.org/TR/2001/REC-SVG-20010904/DTD/svg10.dtd">
<svg version="1.0" xmlns="http://www.w3.org/2000/svg"
 width="300.000000pt" height="300.000000pt" viewBox="0 0 300.000000 300.000000"
 preserveAspectRatio="xMidYMid meet">
<metadata>
Created by potrace 1.14, written by Peter Selinger 2001-2017
</metadata>
<g transform="translate(0.000000,300.000000) scale(0.100000,-0.100000)"
fill="#000000" stroke="none">
<path d="M1361 2991 c-11 -7 -11 -36 -3 -167 14 -211 -3 -534 -28 -549 -5 -3
-48 19 -97 49 -48 29 -121 72 -160 95 -40 23 -99 66 -132 96 -45 42 -66 55
-89 55 -44 0 -53 -23 -38 -95 19 -88 105 -420 116 -451 6 -15 9 -28 8 -29 -2
-2 -32 3 -68 11 -36 7 -85 14 -110 14 -25 0 -54 7 -64 15 -44 33 -167 0 -186
-50 -12 -32 3 -68 37 -86 13 -7 39 -38 58 -69 19 -31 73 -93 119 -138 l86 -82
-64 0 c-35 0 -83 7 -106 15 -67 24 -115 20 -139 -11 -37 -47 -30 -68 61 -183
77 -98 158 -167 211 -182 23 -6 60 -28 82 -48 22 -20 92 -62 155 -93 124 -62
193 -78 343 -78 39 0 100 -7 135 -16 35 -9 68 -12 72 -8 5 5 -22 43 -58 85
-37 42 -89 116 -116 164 -60 107 -114 261 -108 310 l4 34 58 -39 c82 -56 232
-184 327 -282 57 -58 90 -100 107 -140 14 -31 37 -65 51 -74 40 -26 33 -51
-17 -60 -60 -12 -664 -7 -717 5 -48 11 -91 0 -91 -23 0 -24 99 -60 175 -62
411 -15 527 -16 605 -5 187 27 266 62 393 175 108 97 116 115 218 456 11 37
17 77 13 92 -9 42 -49 68 -103 68 -53 0 -67 -8 -113 -67 -18 -23 -86 -98 -151
-167 -118 -125 -119 -126 -139 -203 -21 -86 -38 -115 -38 -67 0 69 27 130 109
244 46 63 90 123 99 134 18 19 127 104 218 169 102 72 194 225 202 338 5 69
-7 109 -33 109 -8 0 -87 -27 -175 -60 -88 -33 -165 -60 -170 -60 -9 0 28 149
56 220 15 38 18 73 16 214 -2 177 -7 196 -47 196 -26 0 -213 -187 -240 -241
-9 -19 -41 -66 -70 -105 -29 -39 -63 -90 -75 -114 l-23 -45 -33 145 c-38 162
-72 256 -150 410 -111 220 -142 258 -183 231z m119 -280 c79 -156 150 -420
158 -588 2 -62 1 -113 -4 -113 -5 0 -52 38 -105 84 -52 46 -105 88 -117 95
-20 11 -20 13 -6 53 28 81 44 209 44 359 0 82 2 149 5 149 2 0 14 -18 25 -39z
m614 -218 c-10 -137 -14 -160 -44 -263 -44 -147 -68 -214 -107 -295 -35 -73
-133 -225 -145 -225 -3 0 -12 17 -19 38 -12 38 -24 59 -67 124 -21 32 -23 42
-14 65 6 16 16 47 22 69 6 25 20 48 35 58 16 10 30 35 40 69 16 56 45 107 134
234 60 87 150 193 162 193 5 0 6 -30 3 -67z m-1094 -123 c30 -20 82 -52 115
-70 76 -42 167 -103 184 -124 8 -9 65 -57 127 -107 93 -74 122 -104 169 -175
30 -46 64 -107 75 -134 11 -28 34 -78 51 -112 29 -58 33 -75 41 -202 4 -77 6
-142 2 -145 -3 -3 -24 15 -47 40 -64 69 -224 206 -303 260 -39 26 -74 54 -77
62 -3 8 -26 24 -51 36 -67 33 -90 54 -142 134 -26 39 -63 90 -81 111 -34 41
-73 147 -92 249 -6 32 -20 88 -31 124 -23 76 -26 108 -7 97 6 -4 37 -24 67
-44z m1394 -302 c-13 -44 -55 -124 -88 -169 -18 -25 -87 -86 -152 -136 -66
-50 -129 -101 -141 -114 -12 -13 -51 -75 -86 -137 l-64 -112 -11 107 -11 108
29 40 c16 22 60 84 96 138 38 56 97 126 137 162 65 59 80 67 176 99 130 42
124 41 115 14z m-1724 -115 c16 -11 46 -18 91 -19 64 -1 196 -27 231 -46 10
-5 40 -41 67 -81 27 -40 70 -92 95 -117 l46 -45 -6 -60 c-4 -33 -10 -64 -14
-68 -12 -14 -115 12 -149 36 -166 121 -271 218 -333 310 -22 32 -53 67 -70 77
-30 18 -30 20 12 29 3 0 16 -7 30 -16z m1626 -372 c-6 -41 -90 -303 -106 -330
-21 -38 -150 -153 -203 -182 -32 -17 -60 -29 -62 -27 -2 2 7 37 20 78 13 41
31 106 39 144 9 38 30 91 47 118 34 53 234 238 257 238 11 0 13 -9 8 -39z
m-1676 -36 c15 -8 53 -14 92 -15 37 0 87 -6 110 -14 24 -8 61 -17 82 -21 22
-3 71 -19 110 -34 39 -16 93 -32 119 -35 67 -10 93 -39 171 -188 l66 -128 -43
0 c-141 2 -309 67 -413 161 -35 32 -66 50 -100 58 -41 10 -61 24 -124 89 -119
122 -145 170 -70 127z"/>
<path d="M1023 810 c-51 -12 -82 -36 -76 -60 5 -18 13 -20 77 -20 63 0 81 -5
155 -41 135 -65 196 -64 374 7 48 19 108 37 135 40 49 6 255 -26 291 -46 11
-5 42 -10 70 -10 40 0 51 4 56 19 9 29 -5 51 -31 51 -14 0 -56 11 -94 24 -95
33 -205 50 -297 44 -61 -4 -100 -14 -180 -47 -132 -53 -181 -55 -279 -7 -66
32 -137 57 -159 55 -5 -1 -25 -4 -42 -9z"/>
<path d="M1020 591 c0 -37 177 -122 294 -141 60 -9 157 1 322 35 91 19 149 25
209 23 92 -3 119 8 99 40 -32 50 -163 53 -427 7 l-168 -30 -147 38 c-151 39
-182 44 -182 28z"/>
<path d="M1142 360 c-19 -8 -21 -13 -12 -30 18 -34 71 -53 185 -66 226 -27
490 -13 574 31 34 17 38 31 17 60 -14 19 -15 19 -87 0 -63 -17 -103 -20 -269
-18 -133 1 -218 7 -268 17 -82 18 -107 19 -140 6z"/>
<path d="M1227 114 c-15 -15 -6 -54 16 -69 49 -32 128 -37 305 -21 169 16 224
27 275 52 61 32 32 36 -240 32 -148 -1 -286 1 -308 5 -22 4 -44 5 -48 1z"/>
</g>
</svg>
